HIERARCHY
ROOT joint_Root
{
	OFFSET 0.0 0.0 0.0
	CHANNELS 6 Xposition Yposition Zposition Zrotation Xrotation Yrotation 
	JOINT Hips
	{
		OFFSET 4.5925 91.4895 -427.239
		CHANNELS 6 Xposition Yposition Zposition Zrotation Xrotation Yrotation 
		JOINT Spine
		{
			OFFSET 15.7357 0.0 0.0
			CHANNELS 6 Xposition Yposition Zposition Zrotation Xrotation Yrotation 
			JOINT Chest
			{
				OFFSET 8.98455 -0.406207 0.0
				CHANNELS 6 Xposition Yposition Zposition Zrotation Xrotation Yrotation 
				JOINT Neck
				{
					OFFSET 16.3773 0.0 0.0
					CHANNELS 6 Xposition Yposition Zposition Zrotation Xrotation Yrotation 
					JOINT Head
					{
						OFFSET 6.45672 0.0 0.0
						CHANNELS 6 Xposition Yposition Zposition Zrotation Xrotation Yrotation 
						End Site
						{
							OFFSET 0.0 0.0 0.0
						}
					}
				}
				JOINT Shoulder_L
				{
					OFFSET 12.9942 -0.242716 4.98039
					CHANNELS 6 Xposition Yposition Zposition Zrotation Xrotation Yrotation 
					JOINT UpperArm_L
					{
						OFFSET 5.34809 0.0 0.0
						CHANNELS 6 Xposition Yposition Zposition Zrotation Xrotation Yrotation 
						JOINT LowerArm_L
						{
							OFFSET 24.3286 1.87007e-05 0.0
							CHANNELS 6 Xposition Yposition Zposition Zrotation Xrotation Yrotation 
							JOINT Hand_L
							{
								OFFSET 22.2916 0.0 0.0
								CHANNELS 6 Xposition Yposition Zposition Zrotation Xrotation Yrotation 
								End Site
								{
									OFFSET 0.0 0.0 0.0
								}
							}
						}
					}
				}
				JOINT Shoulder_R
				{
					OFFSET 12.9945 -0.242716 -4.98039
					CHANNELS 6 Xposition Yposition Zposition Zrotation Xrotation Yrotation 
					JOINT UpperArm_R
					{
						OFFSET -5.34813 0.0 0.0
						CHANNELS 6 Xposition Yposition Zposition Zrotation Xrotation Yrotation 
						JOINT LowerArm_R
						{
							OFFSET -24.3289 0.000322201 0.0
							CHANNELS 6 Xposition Yposition Zposition Zrotation Xrotation Yrotation 
							JOINT Hand_R
							{
								OFFSET -22.2915 -0.000108084 0.0
								CHANNELS 6 Xposition Yposition Zposition Zrotation Xrotation Yrotation 
								End Site
								{
									OFFSET 0.0 0.0 0.0
								}
							}
						}
					}
				}
			}
		}
		JOINT UpperLeg_L
		{
			OFFSET -2.19248 -6.46944 0.0
			CHANNELS 6 Xposition Yposition Zposition Zrotation Xrotation Yrotation 
			JOINT LowerLeg_L
			{
				OFFSET 39.0811 0.0 -1.23785e-05
				CHANNELS 6 Xposition Yposition Zposition Zrotation Xrotation Yrotation 
				JOINT Foot_L
				{
					OFFSET 40.9854 0.0 -1.26872e-05
					CHANNELS 6 Xposition Yposition Zposition Zrotation Xrotation Yrotation 
					JOINT Toes_L
					{
						OFFSET 11.7543 0.0 0.0
						CHANNELS 6 Xposition Yposition Zposition Zrotation Xrotation Yrotation 
						End Site
						{
							OFFSET 0.0 0.0 0.0
						}
					}
				}
			}
		}
		JOINT UpperLeg_R
		{
			OFFSET -2.19251 6.46944 0.0
			CHANNELS 6 Xposition Yposition Zposition Zrotation Xrotation Yrotation 
			JOINT LowerLeg_R
			{
				OFFSET -39.0811 -0.00228153 -0.0401928
				CHANNELS 6 Xposition Yposition Zposition Zrotation Xrotation Yrotation 
				JOINT Foot_R
				{
					OFFSET -40.9854 0.0 0.0
					CHANNELS 6 Xposition Yposition Zposition Zrotation Xrotation Yrotation 
					JOINT Toes_R
					{
						OFFSET -11.7543 0.0 0.0
						CHANNELS 6 Xposition Yposition Zposition Zrotation Xrotation Yrotation 
						End Site
						{
							OFFSET 0.0 0.0 0.0
						}
					}
				}
			}
		}
	}
}
MOTION
Frames:	4
Frame Time:	0.0333333
0.000000 0.000000 0.000000 0.000000 0.000000 -0.000000 1.387690 91.170700 1.557530 88.777700 -6.352530 4.594130 15.735700 0.000005 -0.000001 76.439400 86.092900 -72.408700 8.984550 -0.406207 -0.000000 -0.082463 -2.107430 8.055680 16.377300 -0.000001 -0.000001 5.963810 -2.490420 -1.078660 6.456720 -0.000001 -0.000000 -0.343432 -3.749160 5.034360 12.994200 -0.242716 4.980390 -83.102600 -13.025300 -61.776400 5.348090 -0.000007 -0.000001 -23.780100 -73.302200 -66.559500 24.328600 0.000019 0.000005 6.986370 7.394180 -43.597200 22.291600 -0.000001 0.000005 21.852000 5.379930 -2.296270 12.994500 -0.242716 -4.980390 87.454900 8.896220 -73.964000 -5.348130 -0.000001 -0.000004 -52.892800 16.141100 -2.157130 -24.328900 0.000322 -0.000009 -0.523199 -1.046930 -26.508400 -22.291500 -0.000108 -0.000004 19.381900 5.436030 -4.147280 -2.192480 -6.469440 -0.000000 -176.829000 -12.541100 -2.493400 39.081100 -0.000007 -0.000012 -0.142951 0.267804 28.093100 40.985400 -0.000006 -0.000013 0.549389 1.270510 -70.994200 11.754300 -0.000000 0.000003 -0.000104 -0.001066 -16.618400 -2.192510 6.469440 -0.000001 174.279000 21.727700 177.750000 -39.081100 -0.002282 -0.040193 -0.141131 0.283380 27.008200 -40.985400 0.000008 0.000006 3.839740 18.879500 -69.994000 -11.754300 -0.000006 -0.000006 -0.001406 -0.021023 -17.428000
0.000000 0.000000 0.000000 0.000000 0.000000 -0.000000 1.306910 91.203100 1.497140 88.863200 -6.048630 4.506740 15.735700 0.000005 -0.000001 75.830500 86.120900 -71.948800 8.984550 -0.406207 -0.000000 -0.158271 -2.166750 7.756650 16.377300 -0.000001 -0.000001 5.835080 -2.651760 -1.065130 6.456720 -0.000001 -0.000000 -0.336111 -3.750630 4.946080 12.994200 -0.242716 4.980390 -83.336000 -12.497700 -61.634800 5.348090 -0.000007 -0.000001 -24.145200 -72.161400 -65.519300 24.328600 0.000019 0.000005 6.870870 6.843000 -45.322400 22.291600 -0.000001 0.000005 22.214200 5.381710 -2.352320 12.994500 -0.242716 -4.980390 87.408700 8.843150 -73.596000 -5.348130 -0.000001 -0.000004 -53.386100 15.960000 -2.453830 -24.328900 0.000322 -0.000009 -0.594612 -1.193390 -26.446300 -22.291500 -0.000108 -0.000004 19.518400 5.429230 -3.912770 -2.192480 -6.469440 -0.000000 -176.874000 -12.440100 -2.580620 39.081100 -0.000007 -0.000012 -0.141083 0.266266 27.917400 40.985400 -0.000006 -0.000013 0.552567 1.493890 -70.830000 11.754300 -0.000000 0.000003 -0.000096 -0.000993 -16.615700 -2.192510 6.469440 -0.000001 174.303000 21.819300 177.709000 -39.081100 -0.002282 -0.040193 -0.141425 0.285456 26.886300 -40.985400 0.000008 0.000006 3.741910 18.674500 -69.896600 -11.754300 -0.000006 -0.000006 -0.001483 -0.022050 -17.469700
0.000000 0.000000 0.000000 0.000000 0.000000 -0.000000 1.223670 91.236400 1.420150 88.969300 -5.716320 4.389650 15.735700 0.000005 -0.000001 75.302100 86.148700 -71.577100 8.984550 -0.406207 -0.000000 -0.232349 -2.213540 7.442120 16.377300 -0.000001 -0.000001 5.591450 -2.815210 -0.992695 6.456720 -0.000001 -0.000000 -0.232085 -3.753220 4.732600 12.994200 -0.242716 4.980390 -83.669800 -11.781500 -61.484100 5.348090 -0.000007 -0.000001 -25.205400 -70.348000 -64.253800 24.328600 0.000019 0.000005 6.674870 6.000540 -48.226800 22.291600 -0.000001 0.000005 22.425700 5.373810 -2.105050 12.994500 -0.242716 -4.980390 87.368300 8.833660 -73.337200 -5.348130 -0.000001 -0.000004 -53.894400 15.987800 -2.624630 -24.328900 0.000322 -0.000009 -0.680717 -1.367630 -26.428300 -22.291500 -0.000108 -0.000004 19.609000 5.424790 -3.761070 -2.192480 -6.469440 -0.000000 -176.908000 -12.471000 -2.696360 39.081100 -0.000007 -0.000012 -0.143121 0.272274 27.728900 40.985400 -0.000006 -0.000013 0.591101 1.889370 -70.650800 11.754300 -0.000000 0.000003 -0.000112 -0.001133 -16.620900 -2.192510 6.469440 -0.000001 174.323000 21.940800 177.605000 -39.081100 -0.002282 -0.040193 -0.144481 0.292636 26.795200 -40.985400 0.000008 0.000006 3.705830 18.459300 -69.820300 -11.754300 -0.000006 -0.000006 -0.001406 -0.021018 -17.427800
0.000000 0.000000 0.000000 0.000000 0.000000 -0.000000 1.103350 91.277300 1.339370 89.078400 -5.254310 4.317300 15.735700 0.000005 -0.000001 75.208100 86.159100 -71.656000 8.984550 -0.406207 -0.000000 -0.260110 -2.209290 7.096030 16.377300 -0.000001 -0.000001 5.368360 -2.957590 -0.887779 6.456720 -0.000001 -0.000000 -0.236660 -3.787760 4.466440 12.994200 -0.242716 4.980390 -84.076200 -11.142400 -61.767600 5.348090 -0.000007 -0.000001 -25.014500 -67.894600 -60.280800 24.328600 0.000019 0.000005 6.447150 4.872970 -53.067400 22.291600 -0.000001 0.000005 22.530400 5.368570 -1.942480 12.994500 -0.242716 -4.980390 87.314200 8.887290 -73.109200 -5.348130 -0.000001 -0.000004 -54.417900 16.316500 -2.698490 -24.328900 0.000322 -0.000009 -0.712010 -1.439880 -26.281300 -22.291500 -0.000108 -0.000004 19.697700 5.423010 -3.700690 -2.192480 -6.469440 -0.000000 -176.937000 -12.382100 -2.782450 39.081100 -0.000007 -0.000012 -0.137015 0.263073 27.511800 40.985400 -0.000006 -0.000013 0.605118 2.267790 -70.431000 11.754300 -0.000000 0.000003 -0.000110 -0.001113 -16.620200 -2.192510 6.469440 -0.000001 174.351000 22.126100 177.605000 -39.081100 -0.002282 -0.040193 -0.141265 0.288127 26.646300 -40.985400 0.000008 0.000006 3.623990 18.161100 -69.721700 -11.754300 -0.000006 -0.000006 -0.001479 -0.021997 -17.467600
